<mxfile host="app.diagrams.net" modified="2022-07-22T01:47:59.639Z" agent="5.0 (Windows NT 10.0; Win64; x64) AppleWebKit/537.36 (KHTML, like Gecko) Chrome/103.0.0.0 Safari/537.36" etag="4JPmuny7KkYXjlp7izx3" version="20.1.3" type="github">
  <diagram name="Page-1" id="74b105a0-9070-1c63-61bc-23e55f88626e">
    <mxGraphModel dx="1467" dy="2330" grid="1" gridSize="10" guides="1" tooltips="1" connect="1" arrows="1" fold="1" page="1" pageScale="1.5" pageWidth="1169" pageHeight="826" background="none" math="0" shadow="0">
      <root>
        <mxCell id="0" style=";html=1;" />
        <mxCell id="1" style=";html=1;" parent="0" />
        <mxCell id="yjKJJGsC3JK-F6RYD7a4-15" value="" style="rounded=0;whiteSpace=wrap;html=1;" vertex="1" parent="1">
          <mxGeometry x="260" y="290" width="350" height="160" as="geometry" />
        </mxCell>
        <mxCell id="yjKJJGsC3JK-F6RYD7a4-11" value="Polling (Gross)" style="edgeStyle=orthogonalEdgeStyle;rounded=0;orthogonalLoop=1;jettySize=auto;html=1;exitX=0.5;exitY=0;exitDx=0;exitDy=0;entryX=0.5;entryY=0;entryDx=0;entryDy=0;" edge="1" parent="1" source="yjKJJGsC3JK-F6RYD7a4-1" target="yjKJJGsC3JK-F6RYD7a4-5">
          <mxGeometry relative="1" as="geometry" />
        </mxCell>
        <mxCell id="yjKJJGsC3JK-F6RYD7a4-1" value="Unreal Game Client" style="whiteSpace=wrap;html=1;aspect=fixed;" vertex="1" parent="1">
          <mxGeometry x="890" y="330" width="80" height="80" as="geometry" />
        </mxCell>
        <mxCell id="yjKJJGsC3JK-F6RYD7a4-4" value="" style="edgeStyle=orthogonalEdgeStyle;rounded=0;orthogonalLoop=1;jettySize=auto;html=1;" edge="1" parent="1" source="yjKJJGsC3JK-F6RYD7a4-2" target="yjKJJGsC3JK-F6RYD7a4-3">
          <mxGeometry relative="1" as="geometry" />
        </mxCell>
        <mxCell id="yjKJJGsC3JK-F6RYD7a4-13" style="edgeStyle=orthogonalEdgeStyle;rounded=0;orthogonalLoop=1;jettySize=auto;html=1;exitX=0.5;exitY=1;exitDx=0;exitDy=0;entryX=0;entryY=0.5;entryDx=0;entryDy=0;" edge="1" parent="1" source="yjKJJGsC3JK-F6RYD7a4-2" target="yjKJJGsC3JK-F6RYD7a4-12">
          <mxGeometry relative="1" as="geometry" />
        </mxCell>
        <mxCell id="yjKJJGsC3JK-F6RYD7a4-2" value="Stream (YouTube/Twitch)" style="whiteSpace=wrap;html=1;aspect=fixed;" vertex="1" parent="1">
          <mxGeometry x="100" y="310" width="120" height="120" as="geometry" />
        </mxCell>
        <mxCell id="yjKJJGsC3JK-F6RYD7a4-6" value="Batch Request" style="edgeStyle=orthogonalEdgeStyle;rounded=0;orthogonalLoop=1;jettySize=auto;html=1;" edge="1" parent="1" source="yjKJJGsC3JK-F6RYD7a4-3" target="yjKJJGsC3JK-F6RYD7a4-5">
          <mxGeometry relative="1" as="geometry" />
        </mxCell>
        <mxCell id="yjKJJGsC3JK-F6RYD7a4-3" value="Bot/Listener" style="whiteSpace=wrap;html=1;aspect=fixed;" vertex="1" parent="1">
          <mxGeometry x="290" y="330" width="80" height="80" as="geometry" />
        </mxCell>
        <mxCell id="yjKJJGsC3JK-F6RYD7a4-8" value="" style="edgeStyle=orthogonalEdgeStyle;rounded=0;orthogonalLoop=1;jettySize=auto;html=1;" edge="1" parent="1" source="yjKJJGsC3JK-F6RYD7a4-5" target="yjKJJGsC3JK-F6RYD7a4-7">
          <mxGeometry relative="1" as="geometry" />
        </mxCell>
        <mxCell id="yjKJJGsC3JK-F6RYD7a4-10" value="Websockets" style="edgeStyle=orthogonalEdgeStyle;rounded=0;orthogonalLoop=1;jettySize=auto;html=1;exitX=0.5;exitY=1;exitDx=0;exitDy=0;entryX=0.5;entryY=1;entryDx=0;entryDy=0;" edge="1" parent="1" source="yjKJJGsC3JK-F6RYD7a4-5" target="yjKJJGsC3JK-F6RYD7a4-1">
          <mxGeometry relative="1" as="geometry">
            <Array as="points">
              <mxPoint x="550" y="430" />
              <mxPoint x="900" y="430" />
            </Array>
          </mxGeometry>
        </mxCell>
        <mxCell id="yjKJJGsC3JK-F6RYD7a4-5" value="Game Service" style="whiteSpace=wrap;html=1;aspect=fixed;" vertex="1" parent="1">
          <mxGeometry x="510" y="330" width="80" height="80" as="geometry" />
        </mxCell>
        <mxCell id="yjKJJGsC3JK-F6RYD7a4-9" value="Queueing Library" style="edgeStyle=orthogonalEdgeStyle;rounded=0;orthogonalLoop=1;jettySize=auto;html=1;" edge="1" parent="1" source="yjKJJGsC3JK-F6RYD7a4-7" target="yjKJJGsC3JK-F6RYD7a4-1">
          <mxGeometry relative="1" as="geometry" />
        </mxCell>
        <mxCell id="yjKJJGsC3JK-F6RYD7a4-7" value="Event Queue" style="whiteSpace=wrap;html=1;aspect=fixed;" vertex="1" parent="1">
          <mxGeometry x="700" y="330" width="80" height="80" as="geometry" />
        </mxCell>
        <mxCell id="yjKJJGsC3JK-F6RYD7a4-14" value="SingleRequest" style="edgeStyle=orthogonalEdgeStyle;rounded=0;orthogonalLoop=1;jettySize=auto;html=1;exitX=1;exitY=0.5;exitDx=0;exitDy=0;entryX=0;entryY=0.5;entryDx=0;entryDy=0;" edge="1" parent="1" source="yjKJJGsC3JK-F6RYD7a4-12" target="yjKJJGsC3JK-F6RYD7a4-5">
          <mxGeometry relative="1" as="geometry" />
        </mxCell>
        <mxCell id="yjKJJGsC3JK-F6RYD7a4-12" value="Web Poll Host" style="whiteSpace=wrap;html=1;aspect=fixed;" vertex="1" parent="1">
          <mxGeometry x="290" y="460" width="80" height="80" as="geometry" />
        </mxCell>
        <mxCell id="yjKJJGsC3JK-F6RYD7a4-16" value="Event" style="swimlane;fontStyle=0;childLayout=stackLayout;horizontal=1;startSize=30;horizontalStack=0;resizeParent=1;resizeParentMax=0;resizeLast=0;collapsible=1;marginBottom=0;" vertex="1" parent="1">
          <mxGeometry x="670" y="510" width="160" height="150" as="geometry">
            <mxRectangle x="670" y="480" width="70" height="30" as="alternateBounds" />
          </mxGeometry>
        </mxCell>
        <mxCell id="yjKJJGsC3JK-F6RYD7a4-17" value="EventName" style="text;strokeColor=none;fillColor=none;align=left;verticalAlign=middle;spacingLeft=4;spacingRight=4;overflow=hidden;points=[[0,0.5],[1,0.5]];portConstraint=eastwest;rotatable=0;" vertex="1" parent="yjKJJGsC3JK-F6RYD7a4-16">
          <mxGeometry y="30" width="160" height="30" as="geometry" />
        </mxCell>
        <mxCell id="yjKJJGsC3JK-F6RYD7a4-18" value="Options[]" style="text;strokeColor=none;fillColor=none;align=left;verticalAlign=middle;spacingLeft=4;spacingRight=4;overflow=hidden;points=[[0,0.5],[1,0.5]];portConstraint=eastwest;rotatable=0;" vertex="1" parent="yjKJJGsC3JK-F6RYD7a4-16">
          <mxGeometry y="60" width="160" height="30" as="geometry" />
        </mxCell>
        <mxCell id="yjKJJGsC3JK-F6RYD7a4-19" value="CompletionType" style="text;strokeColor=none;fillColor=none;align=left;verticalAlign=middle;spacingLeft=4;spacingRight=4;overflow=hidden;points=[[0,0.5],[1,0.5]];portConstraint=eastwest;rotatable=0;" vertex="1" parent="yjKJJGsC3JK-F6RYD7a4-16">
          <mxGeometry y="90" width="160" height="30" as="geometry" />
        </mxCell>
        <mxCell id="yjKJJGsC3JK-F6RYD7a4-22" value="GameEventCorrelationId" style="text;strokeColor=none;fillColor=none;align=left;verticalAlign=middle;spacingLeft=4;spacingRight=4;overflow=hidden;points=[[0,0.5],[1,0.5]];portConstraint=eastwest;rotatable=0;" vertex="1" parent="yjKJJGsC3JK-F6RYD7a4-16">
          <mxGeometry y="120" width="160" height="30" as="geometry" />
        </mxCell>
        <mxCell id="yjKJJGsC3JK-F6RYD7a4-21" style="edgeStyle=orthogonalEdgeStyle;rounded=0;orthogonalLoop=1;jettySize=auto;html=1;exitX=0.5;exitY=1;exitDx=0;exitDy=0;entryX=0;entryY=0.5;entryDx=0;entryDy=0;" edge="1" parent="1" source="yjKJJGsC3JK-F6RYD7a4-20" target="yjKJJGsC3JK-F6RYD7a4-5">
          <mxGeometry relative="1" as="geometry" />
        </mxCell>
        <mxCell id="yjKJJGsC3JK-F6RYD7a4-20" value="Admin Page/Tools" style="whiteSpace=wrap;html=1;aspect=fixed;" vertex="1" parent="1">
          <mxGeometry x="450" y="120" width="80" height="80" as="geometry" />
        </mxCell>
        <mxCell id="yjKJJGsC3JK-F6RYD7a4-24" value="&lt;div style=&quot;text-align: left;&quot;&gt;&lt;span style=&quot;background-color: initial;&quot;&gt;Outstanding Questions&lt;/span&gt;&lt;/div&gt;&lt;div style=&quot;text-align: left;&quot;&gt;&lt;span style=&quot;background-color: initial;&quot;&gt;&lt;br&gt;&lt;/span&gt;&lt;/div&gt;&lt;span style=&quot;background-color: initial;&quot;&gt;&lt;div style=&quot;text-align: left;&quot;&gt;&lt;span style=&quot;background-color: initial;&quot;&gt;- Concurrent events (ie. camera controls during &quot;vote off the island&quot; events)&lt;/span&gt;&lt;/div&gt;&lt;/span&gt;&lt;span style=&quot;background-color: initial;&quot;&gt;&lt;div style=&quot;text-align: left;&quot;&gt;&lt;span style=&quot;background-color: initial;&quot;&gt;- Are events added/managed in real time or do we need to be able to &quot;queue them up&quot; or does the game client need to trigger them?&lt;/span&gt;&lt;/div&gt;&lt;div style=&quot;text-align: left;&quot;&gt;&lt;span style=&quot;background-color: initial;&quot;&gt;&amp;nbsp; - Bottom line: how do polls show up?&lt;/span&gt;&lt;/div&gt;&lt;div style=&quot;text-align: left;&quot;&gt;&lt;span style=&quot;background-color: initial;&quot;&gt;- Web poll vs chat parsing&lt;/span&gt;&lt;/div&gt;&lt;div style=&quot;text-align: left;&quot;&gt;&lt;span style=&quot;background-color: initial;&quot;&gt;- How many different ways can polls end?&lt;/span&gt;&lt;/div&gt;&lt;div style=&quot;text-align: left;&quot;&gt;&lt;span style=&quot;background-color: initial;&quot;&gt;- Is any of this going to be live or is it all pre-recorded?&lt;/span&gt;&lt;/div&gt;&lt;div style=&quot;text-align: left;&quot;&gt;&lt;span style=&quot;background-color: initial;&quot;&gt;- What are the events? Can we get a list of all expected event &quot;types&quot;?&lt;/span&gt;&lt;/div&gt;&lt;div style=&quot;text-align: left;&quot;&gt;&lt;span style=&quot;background-color: initial;&quot;&gt;- Will we ever care about who voted for what? (ie. historical data)&lt;/span&gt;&lt;/div&gt;&lt;div style=&quot;text-align: left;&quot;&gt;&lt;span style=&quot;background-color: initial;&quot;&gt;- What should we do when there are no responses? ties? for threshold (ie. first to 100 or 100 total votes), what happens if that number isn&#39;t hit?&lt;/span&gt;&lt;/div&gt;&lt;/span&gt;" style="whiteSpace=wrap;html=1;aspect=fixed;" vertex="1" parent="1">
          <mxGeometry x="640" y="-60" width="280" height="280" as="geometry" />
        </mxCell>
      </root>
    </mxGraphModel>
  </diagram>
</mxfile>
